<svg width="32" height="25" viewBox="0 0 32 25" fill="none" xmlns="http://www.w3.org/2000/svg">
<path d="M27.0894 2.54044C25.0498 1.6046 22.8626 0.915109 20.5759 0.520211C20.5342 0.51259 20.4926 0.531636 20.4712 0.56973C20.1899 1.07002 19.8783 1.72268 19.6601 2.23567C17.2005 1.86745 14.7536 1.86745 12.3444 2.23567C12.1262 1.71128 11.8033 1.07002 11.5208 0.56973C11.4993 0.532907 11.4577 0.513861 11.4161 0.520211C9.13055 0.913847 6.94341 1.60333 4.90258 2.54044C4.88491 2.54806 4.86977 2.56077 4.85972 2.57726C0.711189 8.77508 -0.425267 14.8206 0.13224 20.7911C0.134763 20.8203 0.15116 20.8482 0.173864 20.866C2.91095 22.876 5.56228 24.0963 8.16437 24.9052C8.20602 24.9179 8.25014 24.9026 8.27664 24.8683C8.89217 24.0278 9.44086 23.1415 9.9113 22.2094C9.93906 22.1548 9.91256 22.0901 9.85582 22.0685C8.98551 21.7383 8.1568 21.3358 7.35964 20.8787C7.29659 20.8419 7.29154 20.7517 7.34954 20.7085C7.5173 20.5828 7.68509 20.452 7.84527 20.32C7.87425 20.2958 7.91464 20.2908 7.94871 20.306C13.1857 22.697 18.8554 22.697 24.0306 20.306C24.0647 20.2895 24.1051 20.2946 24.1353 20.3187C24.2955 20.4508 24.4633 20.5828 24.6323 20.7085C24.6903 20.7517 24.6865 20.8419 24.6235 20.8787C23.8263 21.3447 22.9976 21.7383 22.126 22.0672C22.0693 22.0888 22.044 22.1548 22.0718 22.2094C22.5523 23.1401 23.101 24.0265 23.7052 24.8671C23.7304 24.9026 23.7758 24.9179 23.8175 24.9052C26.4322 24.0963 29.0835 22.876 31.8206 20.866C31.8446 20.8482 31.8597 20.8215 31.8622 20.7923C32.5294 13.8898 30.7447 7.89386 27.131 2.57852C27.1221 2.56077 27.107 2.54806 27.0894 2.54044ZM10.6934 17.1557C9.11666 17.1557 7.81751 15.7081 7.81751 13.9304C7.81751 12.1527 9.09147 10.7052 10.6934 10.7052C12.3078 10.7052 13.5944 12.1654 13.5692 13.9304C13.5692 15.7081 12.2952 17.1557 10.6934 17.1557ZM21.3263 17.1557C19.7497 17.1557 18.4505 15.7081 18.4505 13.9304C18.4505 12.1527 19.7244 10.7052 21.3263 10.7052C22.9408 10.7052 24.2274 12.1654 24.2022 13.9304C24.2022 15.7081 22.9408 17.1557 21.3263 17.1557Z" fill="black"/>
</svg>
